<svg width="19" height="19" viewBox="0 0 19 19" fill="none" xmlns="http://www.w3.org/2000/svg">
<path d="M12.3203 7.82976H15.6602V4.60938L12.3203 5.44434V7.82976Z" fill="#4A55A2"/>
<path d="M18.2875 0.0219824L7.08047 3.36183C6.77992 3.45093 6.61293 3.76264 6.70199 4.05213C6.79102 4.35268 7.10277 4.51968 7.39222 4.43061L8.90629 3.9761V6.71659H0.556641C0.248967 6.71659 0 6.96555 0 7.27323V10.6131C0 10.9207 0.248967 11.1697 0.556641 11.1697H19V0.556432C19 0.37827 18.9221 0.211314 18.7773 0.111082C18.6326 -0.000246111 18.4545 -0.0225488 18.2875 0.0219824ZM2.22656 10.0564H1.11328V7.82983H2.22656V10.0564ZM4.45312 10.0564H3.33984V7.82983H4.45312V10.0564ZM6.67969 10.0564H5.56641V7.82983H6.67969V10.0564ZM8.90625 10.0564H7.79297V7.82983H8.90625V10.0564ZM16.7734 8.38647C16.7734 8.69415 16.5245 8.94311 16.2168 8.94311H11.7637C11.456 8.94311 11.207 8.69415 11.207 8.38647V5.00952C11.207 4.75402 11.381 4.5317 11.6289 4.46973L16.082 3.35645C16.2467 3.31351 16.4233 3.35155 16.5592 3.45757C16.6946 3.56303 16.7734 3.72502 16.7734 3.89624V8.38647H16.7734Z" fill="#4A55A2"/>
<path d="M13.4336 12.283H14.5469V18.9998H13.4336V12.283Z" fill="#4A55A2"/>
<path d="M15.6602 12.283H16.7734V18.9998H15.6602V12.283Z" fill="#4A55A2"/>
<path d="M2.22656 17.8865H0.556641C0.244885 17.8865 0 18.1314 0 18.4431C0 18.7548 0.244885 18.9998 0.556641 18.9998H4.45312V13.9529C4.45312 13.6452 4.70209 13.3962 5.00977 13.3962H9.46289C9.77056 13.3962 10.0195 13.6452 10.0195 13.9529V18.9998H12.3203V12.283H2.22656V17.8865Z" fill="#4A55A2"/>
<path d="M17.8867 18.9997H18.4434C18.7551 18.9997 19 18.7548 19 18.4431C19 18.2687 19 12.0423 19 12.2829H17.8867V18.9997Z" fill="#4A55A2"/>
<path d="M8.34961 15.6228H8.90625V14.5095H5.56641V18.9998H8.90625V16.7361H8.34961C8.04194 16.7361 7.79297 16.4871 7.79297 16.1794C7.79297 15.8718 8.04194 15.6228 8.34961 15.6228Z" fill="#4A55A2"/>
</svg>
